<svg width="24" height="24" viewBox="0 0 24 24" fill="none" xmlns="http://www.w3.org/2000/svg">
<path d="M22.5768 8.56487L13.0148 18.5591C12.8815 18.6988 12.7232 18.8097 12.5488 18.8854C12.3745 18.961 12.1876 19 11.9988 19C11.81 19 11.6231 18.961 11.4488 18.8854C11.2744 18.8097 11.1161 18.6988 10.9828 18.5591L1.42083 8.56487C1.15138 8.28324 1 7.90126 1 7.50298C1 7.1047 1.15138 6.72273 1.42083 6.4411C1.69028 6.15947 2.05573 6.00125 2.43679 6.00125C2.81785 6.00125 3.1833 6.15947 3.45275 6.4411L12 15.3747L20.5472 6.43985C20.8167 6.15822 21.1821 6 21.5632 6C21.9443 6 22.3097 6.15822 22.5792 6.43985C22.8486 6.72148 23 7.10345 23 7.50173C23 7.90002 22.8486 8.28199 22.5792 8.56362L22.5768 8.56487Z" fill="white"/>
</svg>
