<svg width="24" height="24" viewBox="0 0 24 24" fill="none" xmlns="http://www.w3.org/2000/svg">
<g clip-path="url(#clip0_1_743)">
<path d="M2.01811 22.4172C3.60083 23.9999 5.78826 23.9134 7.50511 22.2064C8.87654 20.8345 11.7257 15.9904 14.2007 13.5154C15.8507 11.8654 17.673 12.7384 19.5051 11.9905L17.8744 6.0428C17.673 5.30394 17.9704 4.69023 18.8241 4.46009L22.4211 3.50094C22.3058 3.16494 21.9895 2.70466 21.5961 2.3018C19.3804 0.0856565 15.7161 -5.76973e-05 13.5295 2.07209C10.3453 5.1128 12.7624 8.32623 10.6615 10.4267C8.02368 13.0645 4.18668 14.9258 2.22983 16.9208C0.512541 18.6475 0.416541 20.8152 2.01811 22.4172ZM13.9418 7.87537C13.731 7.9328 13.5583 7.82737 13.4815 7.5968C13.4241 7.42451 13.5488 7.21323 13.7503 7.1558L15.9853 6.55151C16.1674 6.50351 16.3783 6.6188 16.4361 6.82023C16.4935 7.04094 16.3688 7.23251 16.1674 7.28994L13.9418 7.87537ZM20.5705 11.5298C20.9817 11.2777 21.3644 10.9818 21.7118 10.6474C22.9204 9.55409 23.544 7.90409 23.2945 6.73366L20.388 7.52994C20.0623 7.61609 19.7935 7.63537 19.4863 7.58737L20.5705 11.5298ZM14.2294 9.01709C14.0181 9.07451 13.836 8.96909 13.7593 8.73894C13.7018 8.56623 13.8265 8.35537 14.028 8.30737L16.263 7.69366C16.4451 7.65509 16.656 7.76051 16.7138 7.96194C16.7807 8.18266 16.6465 8.37466 16.4451 8.43209L14.2294 9.01709ZM14.5075 10.1588C14.3061 10.2162 14.1047 10.1108 14.0567 9.89009C14.0087 9.68866 14.124 9.50651 14.3254 9.44866L16.5505 8.85423C16.5971 8.83827 16.6465 8.83213 16.6955 8.83621C16.7446 8.84029 16.7923 8.8545 16.8356 8.87794C16.8789 8.90138 16.9168 8.93354 16.9471 8.97239C16.9773 9.01124 16.9992 9.05593 17.0113 9.10366C17.0498 9.29523 16.9341 9.50651 16.752 9.55451L14.5075 10.1588ZM3.52411 20.9207C2.87183 20.2684 2.8624 19.1751 3.50525 18.5228C4.15754 17.8512 5.24097 17.8799 5.91297 18.5129C6.6034 19.1652 6.53611 20.2401 5.90311 20.9207C5.29883 21.5828 4.16697 21.5635 3.52454 20.9207" fill="#141414"/>
</g>
<defs>
<clipPath id="clip0_1_743">
<rect width="24" height="24" fill="white"/>
</clipPath>
</defs>
</svg>
